<svg xmlns="http://www.w3.org/2000/svg" width="1120" height="700" viewBox="0 0 560 350">
  <defs>
    <style>
      .cls-1, .cls-2, .cls-3, .cls-4, .cls-5, .cls-6, .cls-7, .cls-8 {
        fill-rule: evenodd;
      }

      .cls-2 {
        fill: gray;
      }

      .cls-3 {
        fill: #a6a6a6;
      }

      .cls-4 {
        fill: #bfbfbf;
      }

      .cls-5 {
        fill: #006eff;
      }

      .cls-6 {
        fill: #fff;
      }

      .cls-7 {
        fill: #1a1a1a;
      }

      .cls-8 {
        fill: #ff3100;
      }
    </style>
  </defs>
  <path id="Audio_Latency" data-name="Audio Latency" class="cls-1" d="M227.044,28.772a13.649,13.649,0,0,0,1.44.06c0.96,0,1.11-.18,1.05-0.51l-5.37-20.549a6.272,6.272,0,0,0-1.14-.09,0.8,0.8,0,0,0-.93.42l-5.34,20.639c0.57,0.06,1.2.09,1.53,0.09,0.96,0,1.05-.15,1.14-0.48l1.17-4.92h5.16Zm-4.92-11.82c0.45-2.01.87-4.32,1.05-5.76a49.909,49.909,0,0,0,1.05,5.76l1.02,4.26H221.1Zm17.58-3.18c-2.4,0-2.43,0-2.43.51V26.4a3.831,3.831,0,0,1-2.01.54c-1.62,0-2.01-.69-2.01-2.64V13.773c-2.52,0-2.52,0-2.52.51v9.81c0,3.36.93,4.98,4.5,4.98a9.833,9.833,0,0,0,4.47-1.08V13.773Zm9.12,12.66a3.117,3.117,0,0,1-1.77.45c-1.41,0-2.25-.84-2.25-5.34,0-4.92,1.32-5.94,2.64-5.94a1.992,1.992,0,0,1,1.38.39v10.44Zm0-12.359a3.4,3.4,0,0,0-2.13-.6c-2.58,0-4.62,2.4-4.62,8.34,0,6.51,2.28,7.26,4.89,7.26a9.841,9.841,0,0,0,4.29-.9V6.723c-1.98,0-2.43,0-2.43,1.11v6.24Zm7.74-.3c-1.98,0-2.49,0-2.49,1.11V28.772c2.46,0,2.49,0,2.49-.48V13.773ZM254.1,9c0,1.41.45,1.89,1.23,1.89,0.93,0,1.38-.72,1.38-1.95,0.03-1.26-.27-1.74-1.2-1.74C254.554,7.2,254.134,7.923,254.1,9Zm4.56,12.269c0,6.75,1.62,7.8,4.709,7.8,3.21,0,4.92-2.31,4.92-7.89,0-6.09-1.5-7.71-4.65-7.71S258.664,15.783,258.664,21.273Zm2.64,0.06c0-4.68.929-5.73,2.249-5.73,1.41,0,2.1.84,2.1,5.61,0,4.68-.93,5.79-2.22,5.79C262.053,27,261.3,26.282,261.3,21.333ZM277.443,7.773c-2.4,0-2.46,0-2.46.69V28.772h7.11a0.425,0.425,0,0,0,.51-0.48v-1.8h-5.16V7.773Zm6.09,7.35a2.878,2.878,0,0,0,.33,1.38,11.672,11.672,0,0,1,3.96-.66c1.2,0,1.86.36,1.86,1.77v2.37a5.45,5.45,0,0,0-2.19-.39c-2.01,0-3.99.75-3.99,4.92,0,4.11,2.1,4.59,4.29,4.56a8.231,8.231,0,0,0,4.17-1.02c0.15-2.28.18-5.88,0.18-9.33v-1.59c0-2.7-1.14-3.66-3.72-3.66a10.568,10.568,0,0,0-4.56.81A1.026,1.026,0,0,0,283.533,15.123Zm6.15,6.57c0,1.62,0,3.84-.09,4.83a2.5,2.5,0,0,1-1.59.51c-1.17,0-1.95-.39-1.95-2.58,0-2.61,1.02-3.03,2.22-3.03A3.8,3.8,0,0,1,289.683,21.693Zm5.64,2.91c0,2.7.33,4.47,2.88,4.47,1.17,0,2.58-.24,2.58-1.35a4.4,4.4,0,0,0-.18-1.2,3.5,3.5,0,0,1-1.74.45c-1.08,0-1.08-1.08-1.08-2.37v-8.73h2.58c0.48,0,.48-0.21.48-2.1h-3.06v-5.4c-2.01,0-2.46,0-2.46.84v4.56h-1.5c-0.51,0-.54.24-0.54,2.1h2.04V24.6Zm11.7-11.129c-2.64,0-5.309,1.08-5.309,8.58,0,5.85,2.009,7.02,4.8,7.02,2.25,0,4.14-.72,4.14-1.65a6.071,6.071,0,0,0-.21-1.65,7.123,7.123,0,0,1-3.42.93c-1.83,0-2.67-.84-2.79-4.02a38.506,38.506,0,0,0,6.27-.48,19.7,19.7,0,0,0,.33-3.9C310.832,15.063,309.542,13.473,307.022,13.473Zm-0.27,2.13c1.29,0,1.68.81,1.71,2.97a8.931,8.931,0,0,1-.15,1.8,16.431,16.431,0,0,1-4.05.33C304.442,16.653,305.522,15.6,306.752,15.6Zm6.21,13.169c2.37,0,2.43,0,2.43-.48V16.143a5.136,5.136,0,0,1,2.22-.54c1.5,0,1.8.72,1.8,2.61v10.56c2.46,0,2.52,0,2.52-.48v-10.8c0-2.91-1.08-4.02-4.23-4.02a13.432,13.432,0,0,0-4.74,1.02V28.772Zm18.93-13.949c0-.78-1.11-1.35-2.49-1.35-2.49,0-5.4.93-5.4,8.13,0,6.33,1.62,7.47,4.47,7.47,1.98,0,3.36-.72,3.36-1.53a4.945,4.945,0,0,0-.24-1.32,4.624,4.624,0,0,1-2.37.69c-1.83,0-2.67-1.08-2.67-5.31,0-5.34,1.56-5.97,2.97-5.97a4.592,4.592,0,0,1,2.1.54A3.683,3.683,0,0,0,331.892,14.823Zm4.979,14.429c-0.45,2.46-1.26,3.24-2.19,3.24a3.813,3.813,0,0,1-1.89-.48,2.63,2.63,0,0,0-.36,1.38c0,0.69.63,1.17,2.43,1.17,2.19,0,3.3-1.17,4.2-4.98l3.69-15.809c-2.49,0-2.52,0-2.64.72l-1.32,6.39c-0.42,2.34-.69,5.07-0.72,5.34-0.06-.39-0.36-3.09-0.81-5.31l-1.62-7.14c-2.55,0-2.55,0-2.37.66Z"/>
  <path id="Milliseconds_of_Latency_lower_is_better_" data-name="Milliseconds of Latency (lower is better)" class="cls-2" d="M184.526,310.258c1.216,0,1.3,0,1.3-.256l-0.032-3.7c-0.016-1.712-.3-4.673-0.3-4.673v-0.016c0.352,1.232.912,3.265,1.04,3.617l0.833,2.561h0.56a0.163,0.163,0,0,0,.176-0.128l0.848-2.433c0.129-.368.689-2.385,1.025-3.585-0.032.5-.256,3.2-0.288,4.721l-0.048,3.89c1.328,0,1.328,0,1.328-.256V299.054H189.9a0.278,0.278,0,0,0-.256.272l-1.409,4.61c-0.192.592-.448,1.68-0.464,1.744-0.032-.112-0.32-1.168-0.512-1.793l-1.521-4.833H184.8a0.225,0.225,0,0,0-.272.272v10.932Zm9.2-8c-1.056,0-1.328,0-1.328.592v7.411c1.312,0,1.328,0,1.328-.256v-7.747Zm-1.312-2.545c0,0.752.24,1.008,0.656,1.008,0.5,0,.736-0.384.736-1.04,0.016-.672-0.144-0.929-0.64-0.929A0.8,0.8,0,0,0,192.414,299.71Zm4.08-1.217c-1.04,0-1.3,0-1.3.593v11.172c1.3,0,1.3,0,1.3-.256V298.493Zm2.768,0c-1.041,0-1.3,0-1.3.593v11.172c1.3,0,1.3,0,1.3-.256V298.493Zm2.8,3.762c-1.057,0-1.329,0-1.329.592v7.411c1.313,0,1.329,0,1.329-.256v-7.747Zm-1.313-2.545c0,0.752.24,1.008,0.656,1.008,0.5,0,.737-0.384.737-1.04,0.016-.672-0.144-0.929-0.641-0.929A0.8,0.8,0,0,0,200.749,299.71ZM205.9,302.1c-1.793,0-2.609.768-2.609,1.889a2.116,2.116,0,0,0,.912,1.7l1.553,1.329a1.6,1.6,0,0,1,.64,1.248,1.064,1.064,0,0,1-1.3.993,3.04,3.04,0,0,1-1.6-.4,1.459,1.459,0,0,0-.224.753c0,0.56.816,0.816,1.953,0.816,1.632,0,2.641-.8,2.641-2.225a2.529,2.529,0,0,0-.945-2l-1.488-1.2A1.24,1.24,0,0,1,204.8,304c0-.5.513-0.769,1.265-0.769a2.882,2.882,0,0,1,1.569.416,1.049,1.049,0,0,0,.288-0.656C207.919,302.671,207.551,302.1,205.9,302.1Zm5.744,0c-1.409,0-2.833.576-2.833,4.578,0,3.121,1.072,3.745,2.561,3.745,1.2,0,2.209-.384,2.209-0.88a3.213,3.213,0,0,0-.113-0.881,3.788,3.788,0,0,1-1.824.5c-0.977,0-1.425-.449-1.489-2.145a20.548,20.548,0,0,0,3.345-.256,10.446,10.446,0,0,0,.177-2.081C213.679,302.943,212.99,302.1,211.646,302.1Zm-0.144,1.136c0.688,0,.9.432,0.912,1.585a4.763,4.763,0,0,1-.08.96,8.771,8.771,0,0,1-2.161.176C210.269,303.791,210.845,303.231,211.5,303.231Zm7.3-.416a1.156,1.156,0,0,0-1.328-.72c-1.329,0-2.882.5-2.882,4.338,0,3.377.865,3.985,2.385,3.985,1.057,0,1.793-.384,1.793-0.816a2.637,2.637,0,0,0-.128-0.7,2.466,2.466,0,0,1-1.264.368c-0.977,0-1.425-.577-1.425-2.833,0-2.85.832-3.186,1.585-3.186a2.448,2.448,0,0,1,1.12.288A1.965,1.965,0,0,0,218.8,302.815Zm0.494,3.441c0,3.6.865,4.162,2.513,4.162,1.713,0,2.625-1.232,2.625-4.21,0-3.249-.8-4.113-2.481-4.113S219.292,303.327,219.292,306.256Zm1.409,0.032c0-2.5.5-3.057,1.2-3.057,0.753,0,1.121.448,1.121,2.993,0,2.5-.5,3.09-1.185,3.09C221.1,309.314,220.7,308.93,220.7,306.288Zm4.815,3.97c1.265,0,1.3,0,1.3-.256v-6.483a2.738,2.738,0,0,1,1.184-.288c0.8,0,.961.384,0.961,1.393v5.634c1.312,0,1.344,0,1.344-.256V304.24c0-1.553-.576-2.145-2.257-2.145a7.174,7.174,0,0,0-2.529.544v7.619Zm9.506-1.248a1.666,1.666,0,0,1-.945.24c-0.752,0-1.2-.449-1.2-2.849,0-2.626.7-3.17,1.408-3.17a1.065,1.065,0,0,1,.737.208v5.571Zm0-6.595a1.816,1.816,0,0,0-1.137-.32c-1.376,0-2.465,1.28-2.465,4.45,0,3.473,1.217,3.873,2.609,3.873a5.249,5.249,0,0,0,2.289-.48V298.493c-1.056,0-1.3,0-1.3.593v3.329Zm5.167-.32c-1.793,0-2.609.768-2.609,1.889a2.116,2.116,0,0,0,.912,1.7l1.553,1.329a1.6,1.6,0,0,1,.64,1.248,1.064,1.064,0,0,1-1.3.993,3.04,3.04,0,0,1-1.6-.4,1.459,1.459,0,0,0-.224.753c0,0.56.816,0.816,1.953,0.816,1.632,0,2.641-.8,2.641-2.225a2.529,2.529,0,0,0-.945-2l-1.488-1.2a1.241,1.241,0,0,1-.64-0.992c0-.5.512-0.769,1.264-0.769a2.882,2.882,0,0,1,1.569.416,1.049,1.049,0,0,0,.288-0.656C242.206,302.671,241.838,302.1,240.189,302.1Zm5.311,4.161c0,3.6.864,4.162,2.513,4.162,1.712,0,2.625-1.232,2.625-4.21,0-3.249-.8-4.113-2.481-4.113S245.5,303.327,245.5,306.256Zm1.408,0.032c0-2.5.5-3.057,1.2-3.057,0.752,0,1.12.448,1.12,2.993,0,2.5-.5,3.09-1.184,3.09C247.308,309.314,246.908,308.93,246.908,306.288Zm5.232-2.929v6.9h1.04a0.249,0.249,0,0,0,.257-0.256v-6.643h1.168c0.256,0,.272-0.08.272-1.1h-1.44v-1.073a1.353,1.353,0,0,1,1.6-1.568,2.935,2.935,0,0,1,1.137.192,1.926,1.926,0,0,0,.144-0.72c0-.4-0.513-0.657-1.489-0.657-1.216,0-2.689.384-2.689,2.865v0.961h-0.768c-0.336,0-.336.08-0.336,1.1h1.1Zm7.3-4.305c-1.28,0-1.312,0-1.312.368v10.836h3.793a0.227,0.227,0,0,0,.272-0.256v-0.96h-2.753v-9.988Zm3.247,3.921a1.535,1.535,0,0,0,.176.736,6.236,6.236,0,0,1,2.113-.352,0.819,0.819,0,0,1,.993.945v1.264a2.911,2.911,0,0,0-1.169-.208c-1.072,0-2.129.4-2.129,2.625,0,2.193,1.121,2.449,2.289,2.433a4.39,4.39,0,0,0,2.225-.544c0.08-1.217.1-3.137,0.1-4.978v-0.848c0-1.441-.608-1.953-1.985-1.953a5.642,5.642,0,0,0-2.433.432A0.547,0.547,0,0,0,262.683,302.975Zm3.282,3.506c0,0.864,0,2.048-.048,2.577a1.337,1.337,0,0,1-.849.272c-0.624,0-1.04-.208-1.04-1.377,0-1.392.544-1.617,1.184-1.617A2.013,2.013,0,0,1,265.965,306.481Zm3.007,1.552c0,1.441.176,2.385,1.536,2.385,0.624,0,1.377-.128,1.377-0.72a2.348,2.348,0,0,0-.1-0.64,1.87,1.87,0,0,1-.929.24c-0.576,0-.576-0.577-0.576-1.265v-4.658h1.377c0.256,0,.256-0.112.256-1.12h-1.633v-2.881c-1.072,0-1.312,0-1.312.448v2.433h-0.8c-0.272,0-.288.128-0.288,1.12h1.089v4.658Zm6.24-5.938c-1.408,0-2.833.576-2.833,4.578,0,3.121,1.072,3.745,2.561,3.745,1.2,0,2.209-.384,2.209-0.88a3.251,3.251,0,0,0-.112-0.881,3.792,3.792,0,0,1-1.825.5c-0.976,0-1.424-.449-1.488-2.145a20.556,20.556,0,0,0,3.345-.256,10.524,10.524,0,0,0,.176-2.081C277.245,302.943,276.557,302.1,275.212,302.1Zm-0.144,1.136c0.688,0,.9.432,0.912,1.585a4.763,4.763,0,0,1-.08.96,8.763,8.763,0,0,1-2.16.176C273.836,303.791,274.412,303.231,275.068,303.231Zm3.311,7.027c1.264,0,1.3,0,1.3-.256v-6.483a2.746,2.746,0,0,1,1.185-.288c0.8,0,.96.384,0.96,1.393v5.634c1.313,0,1.345,0,1.345-.256V304.24c0-1.553-.576-2.145-2.257-2.145a7.169,7.169,0,0,0-2.529.544v7.619Zm10.1-7.443a1.156,1.156,0,0,0-1.328-.72c-1.329,0-2.881.5-2.881,4.338,0,3.377.864,3.985,2.385,3.985,1.056,0,1.792-.384,1.792-0.816a2.637,2.637,0,0,0-.128-0.7,2.466,2.466,0,0,1-1.264.368c-0.977,0-1.425-.577-1.425-2.833,0-2.85.833-3.186,1.585-3.186a2.448,2.448,0,0,1,1.12.288A1.965,1.965,0,0,0,288.476,302.815Zm2.655,7.7c-0.24,1.313-.672,1.729-1.168,1.729a2.035,2.035,0,0,1-1.009-.256,1.4,1.4,0,0,0-.192.736c0,0.368.336,0.624,1.3,0.624,1.168,0,1.76-.624,2.241-2.657l1.968-8.435c-1.328,0-1.344,0-1.408.384l-0.7,3.409c-0.225,1.249-.369,2.7-0.385,2.85-0.032-.209-0.192-1.649-0.432-2.834l-0.864-3.809c-1.361,0-1.361,0-1.265.352Zm8.272-5.426a11.154,11.154,0,0,1,1.969-6.851c-0.144-.64-0.3-0.832-0.721-0.832-0.24,0-2.577,2.385-2.577,7.731,0,5.746,2.289,8.243,2.577,8.243,0.433,0,.609-0.368.721-0.96C300.539,311.475,299.387,308.785,299.4,305.088Zm4.336-6.6c-1.041,0-1.3,0-1.3.593v11.172c1.3,0,1.3,0,1.3-.256V298.493Zm1.119,7.763c0,3.6.864,4.162,2.513,4.162,1.712,0,2.625-1.232,2.625-4.21,0-3.249-.8-4.113-2.481-4.113S304.858,303.327,304.858,306.256Zm1.408,0.032c0-2.5.5-3.057,1.2-3.057,0.752,0,1.12.448,1.12,2.993,0,2.5-.5,3.09-1.184,3.09C306.667,309.314,306.266,308.93,306.266,306.288Zm4.176-3.761s1.1,5.09,1.552,7.043a0.816,0.816,0,0,0,.561.784c0.416,0,1.088-.048,1.088-0.048l0.368-1.857c0.256-1.312.464-2.977,0.576-3.969,0.1,0.976.305,2.641,0.577,3.969l0.208,1.073a0.879,0.879,0,0,0,.688.832,5.633,5.633,0,0,0,.832-0.048c0.064,0,1.729-8.051,1.729-8.051-1.2,0-1.248,0-1.28.288l-0.417,2.321c-0.224,1.264-.432,2.945-0.5,3.889h-0.08s-0.224-1.712-.5-2.913l-0.624-3.361h-0.849c-0.336,0-.4.048-0.432,0.272l-0.5,3.073c-0.192.993-.368,2.369-0.448,2.929h-0.1s-0.224-2.112-.56-3.889l-0.481-2.609C310.522,302.255,310.41,302.255,310.442,302.527Zm11.345-.432c-1.408,0-2.833.576-2.833,4.578,0,3.121,1.072,3.745,2.561,3.745,1.2,0,2.209-.384,2.209-0.88a3.251,3.251,0,0,0-.112-0.881,3.792,3.792,0,0,1-1.825.5c-0.976,0-1.424-.449-1.489-2.145a20.56,20.56,0,0,0,3.346-.256,10.524,10.524,0,0,0,.176-2.081C323.82,302.943,323.132,302.1,321.787,302.1Zm-0.144,1.136c0.688,0,.9.432,0.912,1.585a4.763,4.763,0,0,1-.08.96,8.763,8.763,0,0,1-2.16.176C320.411,303.791,320.987,303.231,321.643,303.231Zm3.311,7.027c1.3,0,1.312,0,1.312-.256l0.016-6.291a1.67,1.67,0,0,1,1.057-.368,1.608,1.608,0,0,1,.768.192,2.194,2.194,0,0,0,.144-0.768c0-.432-0.3-0.672-1.12-0.672a3.89,3.89,0,0,0-2.177.72v7.443Zm8.064-8c-1.056,0-1.328,0-1.328.592v7.411c1.312,0,1.328,0,1.328-.256v-7.747Zm-1.312-2.545c0,0.752.24,1.008,0.656,1.008,0.5,0,.736-0.384.736-1.04,0.016-.672-0.144-0.929-0.64-0.929A0.8,0.8,0,0,0,331.706,299.71Zm5.152,2.385c-1.792,0-2.609.768-2.609,1.889a2.115,2.115,0,0,0,.913,1.7l1.552,1.329a1.6,1.6,0,0,1,.641,1.248,1.065,1.065,0,0,1-1.3.993,3.045,3.045,0,0,1-1.6-.4,1.459,1.459,0,0,0-.224.753c0,0.56.817,0.816,1.953,0.816,1.633,0,2.641-.8,2.641-2.225a2.531,2.531,0,0,0-.944-2l-1.489-1.2a1.241,1.241,0,0,1-.64-0.992c0-.5.512-0.769,1.264-0.769a2.877,2.877,0,0,1,1.569.416,1.049,1.049,0,0,0,.288-0.656C338.875,302.671,338.507,302.1,336.858,302.1Zm5.679,7.843a3.058,3.058,0,0,0,1.873.48c1.328,0,3.089-.544,3.089-5.17,0-2.337-.672-3.153-1.953-3.153a2.588,2.588,0,0,0-1.712.56v-4.162c-1.073,0-1.3,0-1.3.609v10.836Zm1.3-6.227a1.612,1.612,0,0,1,1.12-.448c0.736,0,1.089.56,1.089,2.273,0,3.249-.9,3.73-1.457,3.73a1.205,1.205,0,0,1-.752-0.208v-5.347Zm7.408-1.616c-1.408,0-2.833.576-2.833,4.578,0,3.121,1.072,3.745,2.561,3.745,1.2,0,2.209-.384,2.209-0.88a3.251,3.251,0,0,0-.112-0.881,3.792,3.792,0,0,1-1.825.5c-0.976,0-1.424-.449-1.488-2.145a20.556,20.556,0,0,0,3.345-.256,10.524,10.524,0,0,0,.176-2.081C353.275,302.943,352.587,302.1,351.242,302.1Zm-0.144,1.136c0.688,0,.9.432,0.912,1.585a4.763,4.763,0,0,1-.08.96,8.763,8.763,0,0,1-2.16.176C349.866,303.791,350.442,303.231,351.1,303.231Zm3.9,4.8c0,1.441.176,2.385,1.537,2.385,0.624,0,1.376-.128,1.376-0.72a2.348,2.348,0,0,0-.1-0.64,1.866,1.866,0,0,1-.928.24c-0.576,0-.576-0.577-0.576-1.265v-4.658h1.376c0.256,0,.256-0.112.256-1.12h-1.632v-2.881c-1.073,0-1.313,0-1.313.448v2.433h-0.8c-0.272,0-.288.128-0.288,1.12H355v4.658Zm3.792,0c0,1.441.176,2.385,1.537,2.385,0.624,0,1.376-.128,1.376-0.72a2.348,2.348,0,0,0-.1-0.64,1.866,1.866,0,0,1-.928.24c-0.576,0-.576-0.577-0.576-1.265v-4.658h1.376c0.256,0,.256-0.112.256-1.12h-1.632v-2.881c-1.073,0-1.313,0-1.313.448v2.433h-0.8c-0.272,0-.288.128-0.288,1.12h1.088v4.658Zm6.241-5.938c-1.409,0-2.833.576-2.833,4.578,0,3.121,1.072,3.745,2.561,3.745,1.2,0,2.209-.384,2.209-0.88a3.251,3.251,0,0,0-.112-0.881,3.8,3.8,0,0,1-1.825.5c-0.976,0-1.425-.449-1.489-2.145a20.56,20.56,0,0,0,3.346-.256,10.524,10.524,0,0,0,.176-2.081C367.067,302.943,366.378,302.1,365.034,302.1Zm-0.144,1.136c0.688,0,.9.432,0.912,1.585a4.763,4.763,0,0,1-.08.96,8.767,8.767,0,0,1-2.161.176C363.657,303.791,364.234,303.231,364.89,303.231Zm3.311,7.027c1.3,0,1.312,0,1.312-.256l0.016-6.291a1.669,1.669,0,0,1,1.057-.368,1.608,1.608,0,0,1,.768.192,2.194,2.194,0,0,0,.144-0.768c0-.432-0.3-0.672-1.12-0.672a3.89,3.89,0,0,0-2.177.72v7.443Zm5.408-5.17a12.175,12.175,0,0,1-1.968,7.331c0.112,0.592.288,0.96,0.72,0.96,0.288,0,2.577-2.833,2.577-8.243,0-5.458-2.337-7.731-2.577-7.731-0.416,0-.576.192-0.72,0.832A11.112,11.112,0,0,1,373.609,305.088Z"/>
  <path id="Rockband_3_Calibrator" data-name="Rockband 3 Calibrator" class="cls-2" d="M227.988,54.258c1.281,0,1.3,0,1.3-.256v-4.29h0.56a2.253,2.253,0,0,0,.32-0.016,8.583,8.583,0,0,1,1.313,4.562c0.288,0.016.56,0.032,0.768,0.032,0.608,0,.656-0.08.656-0.32a8.313,8.313,0,0,0-1.5-4.61c0.832-.464,1.392-1.425,1.392-3.137,0-2.225-.928-3.169-2.945-3.169H228.26a0.266,0.266,0,0,0-.272.272V54.258Zm3.362-8.1c0,1.7-.465,2.353-1.361,2.353h-0.7V44.19h0.8C231.03,44.19,231.35,44.942,231.35,46.159Zm2.094,4.1c0,3.6.865,4.162,2.513,4.162,1.713,0,2.625-1.233,2.625-4.21,0-3.249-.8-4.114-2.481-4.114S233.444,47.327,233.444,50.256Zm1.409,0.032c0-2.5.5-3.057,1.2-3.057,0.753,0,1.121.448,1.121,2.993,0,2.5-.5,3.089-1.185,3.089C235.253,53.314,234.853,52.93,234.853,50.289Zm8.8-3.473a1.156,1.156,0,0,0-1.329-.72c-1.328,0-2.881.5-2.881,4.338,0,3.377.865,3.986,2.385,3.986,1.057,0,1.793-.384,1.793-0.816a2.639,2.639,0,0,0-.128-0.7,2.466,2.466,0,0,1-1.265.368c-0.976,0-1.424-.576-1.424-2.833,0-2.849.832-3.185,1.584-3.185a2.449,2.449,0,0,1,1.121.288A1.966,1.966,0,0,0,243.654,46.815Zm1.038,7.443c1.329,0,1.313,0,1.313-.256V50.945a3.263,3.263,0,0,1,.7-0.3c0.608-.128,1.2.368,1.392,1.649a5.616,5.616,0,0,1,.081.944c0,0.32-.033.656-0.065,1.024,1.441,0,1.441,0,1.473-.256a7.415,7.415,0,0,0,.048-0.816c0-.192,0-0.368-0.016-0.528a3.056,3.056,0,0,0-1.585-2.705,3.238,3.238,0,0,0,1.329-2.481,1.218,1.218,0,0,0-1.361-1.376,3.271,3.271,0,0,0-2,.736V42.493c-1.073,0-1.313,0-1.313.592V54.258Zm3.233-6.339c0,1.008-.816,1.649-1.92,2.1V48.032a1.8,1.8,0,0,1,1.328-.768A0.56,0.56,0,0,1,247.925,47.92Zm2.879,6.018a3.054,3.054,0,0,0,1.873.48c1.328,0,3.089-.544,3.089-5.17,0-2.337-.672-3.153-1.953-3.153a2.587,2.587,0,0,0-1.712.56V42.493c-1.073,0-1.3,0-1.3.608V53.938Zm1.3-6.227a1.612,1.612,0,0,1,1.12-.448c0.736,0,1.088.56,1.088,2.273,0,3.249-.9,3.73-1.456,3.73a1.2,1.2,0,0,1-.752-0.208V47.711Zm4.559-.736a1.536,1.536,0,0,0,.176.736,6.224,6.224,0,0,1,2.113-.352,0.819,0.819,0,0,1,.992.944v1.264a2.9,2.9,0,0,0-1.168-.208c-1.073,0-2.129.4-2.129,2.625,0,2.193,1.12,2.449,2.289,2.433a4.392,4.392,0,0,0,2.225-.544c0.08-1.216.1-3.137,0.1-4.978V48.048c0-1.441-.609-1.953-1.985-1.953a5.638,5.638,0,0,0-2.433.432A0.548,0.548,0,0,0,256.66,46.975Zm3.281,3.505c0,0.864,0,2.049-.048,2.577a1.334,1.334,0,0,1-.848.272c-0.624,0-1.041-.208-1.041-1.377,0-1.392.545-1.617,1.185-1.617A2.027,2.027,0,0,1,259.941,50.481Zm2.623,3.778c1.264,0,1.3,0,1.3-.256V47.519a2.743,2.743,0,0,1,1.185-.288c0.8,0,.96.384,0.96,1.393v5.634c1.313,0,1.345,0,1.345-.256V48.24c0-1.553-.577-2.145-2.257-2.145a7.162,7.162,0,0,0-2.529.544v7.619Zm9.5-1.248a1.662,1.662,0,0,1-.944.24c-0.753,0-1.2-.448-1.2-2.849,0-2.625.7-3.169,1.409-3.169a1.062,1.062,0,0,1,.736.208v5.57Zm0-6.595a1.81,1.81,0,0,0-1.136-.32c-1.377,0-2.465,1.281-2.465,4.45,0,3.473,1.216,3.874,2.609,3.874a5.246,5.246,0,0,0,2.288-.48V42.493c-1.056,0-1.3,0-1.3.592v3.329Zm8.5,3.025a3.623,3.623,0,0,0,1.744-2.881c0-1.024-.528-1.9-2.225-1.9s-2.769.448-2.769,0.864a2.275,2.275,0,0,0,.176.96V46.463a4.318,4.318,0,0,1,2.193-.56,0.958,0.958,0,0,1,1.153,1.04c0,0.9-.769,1.793-2.129,2.433l0.032,0.832c1.312,0,2.545.288,2.545,1.649,0,1.6-.784,2.753-2.193,2.753a2.334,2.334,0,0,1-1.569-.5,2.923,2.923,0,0,0-.176.96c0,0.416.529,0.784,1.713,0.784,2.081,0,3.617-1.376,3.617-4.034A2.168,2.168,0,0,0,280.565,49.44Zm8.911-6.595c-1.424,0-3.153.8-3.153,6.274,0,4.658,1.137,5.346,2.657,5.346,1.185,0,1.985-.528,1.985-1.152a2.021,2.021,0,0,0-.192-0.784,2.474,2.474,0,0,1-1.473.5c-0.944,0-1.6-.72-1.6-3.97,0-4.226,1.024-4.946,2.032-4.946a1.624,1.624,0,0,1,1.041.4,1.62,1.62,0,0,0,.208-0.784C290.981,43.31,290.661,42.846,289.476,42.846Zm2.079,4.13a1.536,1.536,0,0,0,.176.736,6.228,6.228,0,0,1,2.113-.352,0.819,0.819,0,0,1,.992.944v1.264a2.9,2.9,0,0,0-1.168-.208c-1.072,0-2.129.4-2.129,2.625,0,2.193,1.121,2.449,2.289,2.433a4.392,4.392,0,0,0,2.225-.544c0.08-1.216.1-3.137,0.1-4.978V48.048c0-1.441-.608-1.953-1.985-1.953a5.641,5.641,0,0,0-2.433.432A0.548,0.548,0,0,0,291.555,46.975Zm3.281,3.505c0,0.864,0,2.049-.048,2.577a1.334,1.334,0,0,1-.848.272c-0.624,0-1.04-.208-1.04-1.377,0-1.392.544-1.617,1.184-1.617A2.027,2.027,0,0,1,294.836,50.481Zm3.936-7.987c-1.041,0-1.3,0-1.3.592V54.258c1.3,0,1.3,0,1.3-.256V42.493Zm2.8,3.762c-1.056,0-1.328,0-1.328.592v7.411c1.312,0,1.328,0,1.328-.256V46.255Zm-1.312-2.545c0,0.752.24,1.008,0.656,1.008,0.5,0,.736-0.384.736-1.04,0.016-.672-0.144-0.928-0.64-0.928A0.8,0.8,0,0,0,300.259,43.71Zm2.8,10.228a3.053,3.053,0,0,0,1.872.48c1.329,0,3.09-.544,3.09-5.17,0-2.337-.673-3.153-1.953-3.153a2.59,2.59,0,0,0-1.713.56V42.493c-1.072,0-1.3,0-1.3.608V53.938Zm1.3-6.227a1.613,1.613,0,0,1,1.121-.448c0.736,0,1.088.56,1.088,2.273,0,3.249-.9,3.73-1.456,3.73a1.206,1.206,0,0,1-.753-0.208V47.711Zm4.8,6.547c1.3,0,1.312,0,1.312-.256l0.016-6.291a1.666,1.666,0,0,1,1.057-.368,1.608,1.608,0,0,1,.768.192,2.2,2.2,0,0,0,.144-0.768c0-.432-0.3-0.672-1.121-0.672a3.889,3.889,0,0,0-2.176.72v7.443Zm3.967-7.283a1.536,1.536,0,0,0,.176.736,6.233,6.233,0,0,1,2.113-.352,0.819,0.819,0,0,1,.993.944v1.264a2.913,2.913,0,0,0-1.169-.208c-1.072,0-2.129.4-2.129,2.625,0,2.193,1.121,2.449,2.289,2.433a4.389,4.389,0,0,0,2.225-.544c0.08-1.216.1-3.137,0.1-4.978V48.048c0-1.441-.608-1.953-1.985-1.953a5.641,5.641,0,0,0-2.433.432A0.548,0.548,0,0,0,313.122,46.975Zm3.282,3.505c0,0.864,0,2.049-.048,2.577a1.337,1.337,0,0,1-.849.272c-0.624,0-1.04-.208-1.04-1.377,0-1.392.544-1.617,1.184-1.617A2.032,2.032,0,0,1,316.4,50.481Zm3.006,1.553c0,1.441.177,2.385,1.537,2.385,0.624,0,1.377-.128,1.377-0.72a2.349,2.349,0,0,0-.1-0.64,1.873,1.873,0,0,1-.929.24c-0.576,0-.576-0.576-0.576-1.264V47.375H322.1c0.256,0,.256-0.112.256-1.12h-1.633V43.374c-1.072,0-1.313,0-1.313.448v2.433h-0.8c-0.272,0-.288.128-0.288,1.12h1.088v4.658Zm3.392-1.777c0,3.6.864,4.162,2.513,4.162,1.713,0,2.625-1.233,2.625-4.21,0-3.249-.8-4.114-2.481-4.114S322.8,47.327,322.8,50.256Zm1.408,0.032c0-2.5.5-3.057,1.2-3.057,0.752,0,1.12.448,1.12,2.993,0,2.5-.5,3.089-1.184,3.089C324.611,53.314,324.21,52.93,324.21,50.289Zm4.816,3.97c1.3,0,1.312,0,1.312-.256l0.016-6.291a1.67,1.67,0,0,1,1.057-.368,1.608,1.608,0,0,1,.768.192,2.2,2.2,0,0,0,.144-0.768c0-.432-0.3-0.672-1.12-0.672a3.892,3.892,0,0,0-2.177.72v7.443Z"/>
  <path id="Reference_System_-_Intel_Core_i7_6700K_4.2Ghz_Nvidia_GeFo" data-name="Reference System  -  Intel Core i7 6700K @ 4.2Ghz | Nvidia GeFo" class="cls-3" d="M78.934,340.258c1.121,0,1.135,0,1.135-.224V336.28h0.49a1.974,1.974,0,0,0,.28-0.014,7.511,7.511,0,0,1,1.149,3.992c0.252,0.014.49,0.028,0.672,0.028,0.532,0,.574-0.07.574-0.28a7.272,7.272,0,0,0-1.317-4.034c0.728-.406,1.219-1.247,1.219-2.746,0-1.947-.812-2.773-2.577-2.773H79.172a0.233,0.233,0,0,0-.238.238v9.567Zm2.942-7.088c0,1.485-.406,2.059-1.191,2.059H80.069v-3.782h0.7C81.6,331.447,81.875,332.106,81.875,333.17Zm4.41-.056c-1.233,0-2.479.5-2.479,4.006,0,2.732.938,3.278,2.241,3.278,1.051,0,1.933-.336,1.933-0.77a2.841,2.841,0,0,0-.1-0.771,3.328,3.328,0,0,1-1.6.435c-0.854,0-1.247-.393-1.3-1.877a17.889,17.889,0,0,0,2.928-.225,9.189,9.189,0,0,0,.154-1.821C88.064,333.857,87.462,333.114,86.285,333.114Zm-0.126,1c0.6,0,.784.378,0.8,1.386a4.164,4.164,0,0,1-.07.841A7.675,7.675,0,0,1,85,336.49C85.081,334.6,85.585,334.109,86.159,334.109Zm3.4,0.112v6.037h0.91a0.217,0.217,0,0,0,.224-0.224v-5.813h1.023c0.224,0,.238-0.07.238-0.967H90.695v-0.938a1.185,1.185,0,0,1,1.4-1.373,2.564,2.564,0,0,1,.995.168,1.685,1.685,0,0,0,.126-0.63c0-.35-0.448-0.575-1.3-0.575-1.065,0-2.353.337-2.353,2.508v0.84H88.888c-0.294,0-.294.07-0.294,0.967H89.56Zm5.069-1.107c-1.233,0-2.479.5-2.479,4.006,0,2.732.939,3.278,2.241,3.278,1.051,0,1.933-.336,1.933-0.77a2.841,2.841,0,0,0-.1-0.771,3.328,3.328,0,0,1-1.6.435c-0.854,0-1.247-.393-1.3-1.877a17.889,17.889,0,0,0,2.928-.225,9.189,9.189,0,0,0,.154-1.821C96.408,333.857,95.806,333.114,94.629,333.114Zm-0.126,1c0.6,0,.785.378,0.8,1.386a4.164,4.164,0,0,1-.07.841,7.675,7.675,0,0,1-1.891.154C93.424,334.6,93.929,334.109,94.5,334.109Zm2.9,6.149c1.135,0,1.149,0,1.149-.224l0.014-5.5a1.459,1.459,0,0,1,.925-0.322,1.407,1.407,0,0,1,.672.168,1.92,1.92,0,0,0,.126-0.672c0-.379-0.266-0.589-0.98-0.589a3.4,3.4,0,0,0-1.905.631v6.513Zm5.671-7.144c-1.233,0-2.48.5-2.48,4.006,0,2.732.939,3.278,2.242,3.278,1.05,0,1.933-.336,1.933-0.77a2.841,2.841,0,0,0-.1-0.771,3.332,3.332,0,0,1-1.6.435c-0.855,0-1.247-.393-1.3-1.877a17.9,17.9,0,0,0,2.928-.225,9.2,9.2,0,0,0,.154-1.821C104.85,333.857,104.247,333.114,103.071,333.114Zm-0.126,1c0.6,0,.784.378,0.8,1.386a4.171,4.171,0,0,1-.07.841,7.676,7.676,0,0,1-1.891.154C101.866,334.6,102.37,334.109,102.945,334.109Zm2.9,6.149c1.107,0,1.135,0,1.135-.224v-5.673a2.4,2.4,0,0,1,1.037-.252c0.7,0,.84.336,0.84,1.218v4.931c1.149,0,1.177,0,1.177-.224v-5.043c0-1.359-.5-1.877-1.975-1.877a6.279,6.279,0,0,0-2.214.476v6.668Zm8.836-6.513a1.011,1.011,0,0,0-1.162-.631c-1.163,0-2.522.434-2.522,3.8,0,2.956.757,3.488,2.087,3.488,0.925,0,1.569-.336,1.569-0.714a2.321,2.321,0,0,0-.112-0.617,2.149,2.149,0,0,1-1.107.323c-0.854,0-1.246-.5-1.246-2.48,0-2.493.728-2.787,1.387-2.787a2.142,2.142,0,0,1,.98.252A1.719,1.719,0,0,0,114.677,333.745Zm2.953-.631c-1.232,0-2.479.5-2.479,4.006,0,2.732.939,3.278,2.241,3.278,1.051,0,1.933-.336,1.933-0.77a2.841,2.841,0,0,0-.1-0.771,3.326,3.326,0,0,1-1.6.435c-0.854,0-1.246-.393-1.3-1.877a17.882,17.882,0,0,0,2.927-.225,9.2,9.2,0,0,0,.154-1.821C119.409,333.857,118.807,333.114,117.63,333.114Zm-0.126,1c0.6,0,.785.378,0.8,1.386a4.171,4.171,0,0,1-.07.841,7.676,7.676,0,0,1-1.891.154C116.426,334.6,116.93,334.109,117.5,334.109Zm7.238-3.8c-1.569,0-2.409.84-2.409,2.017a3.1,3.1,0,0,0,.868,2.017l1.415,1.639a2.549,2.549,0,0,1,.813,1.821,1.245,1.245,0,0,1-1.373,1.429,2.108,2.108,0,0,1-1.443-.491,1.449,1.449,0,0,0-.294.813c0,0.392.56,0.84,1.835,0.84,1.905,0,2.507-1.219,2.507-2.633a3.3,3.3,0,0,0-.938-2.368l-1.513-1.722a2.077,2.077,0,0,1-.644-1.387,1.123,1.123,0,0,1,1.358-.967,2.512,2.512,0,0,1,1.373.35,1,1,0,0,0,.28-0.658C126.577,330.621,126.073,330.313,124.742,330.313Zm3.78,10.169c-0.21,1.149-.589,1.513-1.023,1.513a1.78,1.78,0,0,1-.882-0.224,1.227,1.227,0,0,0-.168.644c0,0.322.294,0.547,1.134,0.547,1.023,0,1.541-.547,1.961-2.326l1.723-7.382c-1.162,0-1.176,0-1.232.336l-0.617,2.984c-0.2,1.093-.322,2.367-0.336,2.493-0.028-.182-0.168-1.442-0.378-2.479l-0.757-3.334c-1.19,0-1.19,0-1.106.308Zm5.544-7.368c-1.569,0-2.283.673-2.283,1.653a1.854,1.854,0,0,0,.8,1.485l1.359,1.163a1.4,1.4,0,0,1,.56,1.092,0.932,0.932,0,0,1-1.134.869,2.659,2.659,0,0,1-1.4-.351,1.277,1.277,0,0,0-.2.659c0,0.49.714,0.714,1.709,0.714,1.428,0,2.311-.7,2.311-1.947a2.212,2.212,0,0,0-.827-1.751l-1.3-1.05a1.088,1.088,0,0,1-.561-0.869c0-.434.449-0.672,1.107-0.672a2.52,2.52,0,0,1,1.373.364,0.918,0.918,0,0,0,.252-0.574C135.831,333.618,135.509,333.114,134.066,333.114Zm3.317,5.2c0,1.261.154,2.087,1.345,2.087,0.546,0,1.2-.112,1.2-0.63a2.068,2.068,0,0,0-.084-0.561,1.623,1.623,0,0,1-.812.211c-0.5,0-.5-0.5-0.5-1.107v-4.076h1.2c0.224,0,.224-0.1.224-0.981h-1.428v-2.521c-0.939,0-1.149,0-1.149.392v2.129h-0.7c-0.239,0-.253.112-0.253,0.981h0.953v4.076Zm5.461-5.2c-1.233,0-2.48.5-2.48,4.006,0,2.732.939,3.278,2.242,3.278,1.05,0,1.933-.336,1.933-0.77a2.841,2.841,0,0,0-.1-0.771,3.332,3.332,0,0,1-1.6.435c-0.855,0-1.247-.393-1.3-1.877a17.9,17.9,0,0,0,2.928-.225,9.2,9.2,0,0,0,.154-1.821C144.623,333.857,144.02,333.114,142.844,333.114Zm-0.126,1c0.6,0,.784.378,0.8,1.386a4.171,4.171,0,0,1-.07.841,7.676,7.676,0,0,1-1.891.154C141.639,334.6,142.143,334.109,142.718,334.109Zm5.684,6.149c1.149,0,1.135,0,1.135-.224v-5.645a1.682,1.682,0,0,1,.938-0.266c0.56,0,.686.28,0.686,0.952v5.183c1.093,0,1.135,0,1.135-.224v-4.945c0-1.26-.168-1.975-1.569-1.975a3.786,3.786,0,0,0-1.723.434,1.629,1.629,0,0,0-1.26-.434,5.156,5.156,0,0,0-2.116.462v6.682c1.093,0,1.135,0,1.135-.224v-5.687a2.039,2.039,0,0,1,.953-0.238,0.57,0.57,0,0,1,.686.7v5.449Zm12-3.446c0.238,0,.238-0.294.238-0.994H158c-0.224,0-.224.28-0.224,0.994h2.62Zm5.752,3.446c1.135,0,1.149,0,1.149-.224v-9.581c-1.135,0-1.149,0-1.149.518v9.287Zm2.38,0c1.107,0,1.135,0,1.135-.224v-5.673a2.4,2.4,0,0,1,1.036-.252c0.7,0,.841.336,0.841,1.218v4.931c1.148,0,1.176,0,1.176-.224v-5.043c0-1.359-.5-1.877-1.975-1.877a6.274,6.274,0,0,0-2.213.476v6.668Zm5.922-1.947c0,1.261.154,2.087,1.345,2.087,0.546,0,1.2-.112,1.2-0.63a2.068,2.068,0,0,0-.084-0.561,1.63,1.63,0,0,1-.813.211c-0.5,0-.5-0.5-0.5-1.107v-4.076h1.2c0.224,0,.224-0.1.224-0.981H175.6v-2.521c-0.939,0-1.149,0-1.149.392v2.129h-0.7c-0.238,0-.252.112-0.252,0.981h0.952v4.076Zm5.461-5.2c-1.233,0-2.479.5-2.479,4.006,0,2.732.938,3.278,2.241,3.278,1.05,0,1.933-.336,1.933-0.77a2.841,2.841,0,0,0-.1-0.771,3.329,3.329,0,0,1-1.6.435c-0.854,0-1.247-.393-1.3-1.877a17.893,17.893,0,0,0,2.928-.225,9.2,9.2,0,0,0,.154-1.821C181.694,333.857,181.092,333.114,179.915,333.114Zm-0.126,1c0.6,0,.784.378,0.8,1.386a4.171,4.171,0,0,1-.07.841,7.672,7.672,0,0,1-1.891.154C178.71,334.6,179.215,334.109,179.789,334.109Zm4.045-4.146c-0.91,0-1.134,0-1.134.518v9.777c1.134,0,1.134,0,1.134-.224V329.963Zm6.035,0.308c-1.247,0-2.76.7-2.76,5.491,0,4.076,1,4.678,2.326,4.678,1.036,0,1.737-.462,1.737-1.008a1.751,1.751,0,0,0-.169-0.687,2.165,2.165,0,0,1-1.288.434c-0.827,0-1.4-.63-1.4-3.473,0-3.7.9-4.329,1.779-4.329a1.42,1.42,0,0,1,.91.35,1.405,1.405,0,0,0,.183-0.686C191.186,330.677,190.905,330.271,189.869,330.271Zm1.678,6.485c0,3.152.757,3.642,2.2,3.642,1.5,0,2.3-1.078,2.3-3.684,0-2.843-.7-3.6-2.172-3.6S191.547,334.193,191.547,336.756Zm1.233,0.028c0-2.185.434-2.675,1.05-2.675,0.659,0,.981.392,0.981,2.619,0,2.185-.434,2.7-1.037,2.7C193.13,339.432,192.78,339.1,192.78,336.784Zm4.213,3.474c1.135,0,1.149,0,1.149-.224l0.014-5.5a1.458,1.458,0,0,1,.924-0.322,1.408,1.408,0,0,1,.673.168,1.92,1.92,0,0,0,.126-0.672c0-.379-0.266-0.589-0.981-0.589a3.4,3.4,0,0,0-1.905.631v6.513Zm5.671-7.144c-1.232,0-2.479.5-2.479,4.006,0,2.732.939,3.278,2.241,3.278,1.051,0,1.933-.336,1.933-0.77a2.841,2.841,0,0,0-.1-0.771,3.326,3.326,0,0,1-1.6.435c-0.854,0-1.246-.393-1.3-1.877a17.882,17.882,0,0,0,2.927-.225,9.2,9.2,0,0,0,.154-1.821C204.443,333.857,203.841,333.114,202.664,333.114Zm-0.126,1c0.6,0,.785.378,0.8,1.386a4.171,4.171,0,0,1-.07.841,7.68,7.68,0,0,1-1.891.154C201.46,334.6,201.964,334.109,202.538,334.109Zm6.272-.855c-0.925,0-1.163,0-1.163.519v6.485c1.149,0,1.163,0,1.163-.224v-6.78Zm-1.149-2.227c0,0.658.21,0.883,0.574,0.883,0.435,0,.645-0.337.645-0.911s-0.126-.812-0.561-0.812A0.7,0.7,0,0,0,207.661,331.027Zm2.254-.574v1.4h3.067l-2.255,8.4h1.541l2.269-8.461v-1.344h-4.622Zm7.714,7.452a2.342,2.342,0,1,0,4.678,0v-1.793c0-1.443-.574-2.241-1.709-2.241a1.466,1.466,0,0,0-1.428.868v-1.793c0-.938.308-1.205,0.854-1.205a0.784,0.784,0,0,1,.8.967v0.35h1.457v-0.252a2.146,2.146,0,0,0-2.3-2.465c-1.6,0-2.353.9-2.353,2.549v5.015Zm2.339-2.634a0.784,0.784,0,0,1,.8.967V338a0.81,0.81,0,1,1-1.6,0v-1.765A0.784,0.784,0,0,1,219.968,335.271Zm3.205-4.818v1.4h3.067l-2.255,8.4h1.541L227.8,331.8v-1.344h-4.622Zm7.056,2.255a0.813,0.813,0,1,1,1.6,0V338a0.813,0.813,0,1,1-1.6,0v-5.295Zm-1.54,5.2a2.342,2.342,0,1,0,4.678,0v-5.1a2.342,2.342,0,1,0-4.678,0v5.1Zm7.084-5.2a0.813,0.813,0,1,1,1.6,0V338a0.813,0.813,0,1,1-1.6,0v-5.295Zm-1.541,5.2a2.343,2.343,0,1,0,4.679,0v-5.1a2.343,2.343,0,1,0-4.679,0v5.1Zm5.7,2.353c1.148,0,1.148,0,1.148-.224v-4.609a1.859,1.859,0,0,1,.574.379c0.785,0.854,1.163,2.255,1.569,4.44,0.28,0.028.547,0.042,0.8,0.042,0.392,0,.476-0.07.462-0.28-0.364-2.676-1.135-4.482-2.241-5.323l2.255-3.908q0.168-.336-0.462-0.336a3.756,3.756,0,0,0-.729.084l-2.227,4.16v-4.23c-1.148,0-1.148,0-1.148.238v9.567Zm13.751-1.779c1.078,0,2.731-1.022,2.731-4.468,0-2.27-.938-4.119-3.894-4.119-3.46,0-5.169,2.844-5.169,6.3,0,2.9,1.345,4.9,4.5,4.9a4.85,4.85,0,0,0,2.871-.785l0.112-1.345a4.344,4.344,0,0,1-2.9.953c-2.227,0-3.264-1.4-3.264-3.656,0-3.194,1.3-5.183,3.8-5.183,1.947,0,2.788,1.2,2.788,2.956,0,1.428-.337,3.165-1.121,3.165a0.258,0.258,0,0,1-.28-0.35l0.42-4.048h-1.345l-0.084.812a1.157,1.157,0,0,0-1.148-.868c-0.981-.042-1.569.7-1.709,2.073l-0.154,1.415c-0.14,1.359.28,2.129,1.26,2.157a1.363,1.363,0,0,0,1.359-.84A1.029,1.029,0,0,0,253.682,338.479Zm-2.368-3.5a0.779,0.779,0,0,1,.8-0.882,0.6,0.6,0,0,1,.6.784l-0.14,1.331a0.783,0.783,0,0,1-.784.882c-0.435-.014-0.673-0.28-0.6-0.924Zm7.712,3.5h2.942v1.779h1.541v-1.779h0.728v-1.4h-0.728v-6.625h-1.681l-2.8,6.625v1.4Zm1.415-1.4,1.527-3.628v3.628h-1.527Zm4.493,1.7v1.485h1.485v-1.485h-1.485Zm5.658-5.911c0,2.83-3.054,3.306-3.054,6.191v1.2h4.454v-1.4h-2.913c-0.294-1.723,3.054-2.829,3.054-6.051a2.3,2.3,0,1,0-4.595,0v0.953H269v-1.051a0.784,0.784,0,0,1,.8-0.967C270.284,331.741,270.592,331.98,270.592,332.862Zm5.306-2.535c-1.849,0-3,.868-3,5.253,0,3.936.756,4.8,2.633,4.8a2.856,2.856,0,0,0,1.9-.616l0.014-5.267h-1.835a0.224,0.224,0,0,0-.266.238v0.728h1.023v3.474a0.949,0.949,0,0,1-.813.337c-0.91,0-1.442-.449-1.442-3.769,0-3.137.588-4.1,2.017-4.1a1.793,1.793,0,0,1,1.106.336,1.908,1.908,0,0,0,.154-0.714C277.4,330.663,276.836,330.327,275.9,330.327Zm2.644,9.931c1.121,0,1.135,0,1.135-.224v-5.477a1.615,1.615,0,0,1,1.05-.392c0.687,0,.8.5,0.8,1.12v4.973c1.12,0,1.176,0,1.176-.224v-5.071c0-1.176-.252-1.849-1.457-1.849a2.434,2.434,0,0,0-1.568.546v-3.7c-0.939,0-1.135,0-1.135.518v9.777Zm5.4-7c-0.266,0-.364.154-0.364,0.491a3.094,3.094,0,0,0,.042.546,9.689,9.689,0,0,1,1.274-.07h1.429l-2.717,5.043a0.979,0.979,0,0,0-.1.434,0.745,0.745,0,0,0,.2.56h3.432c0.378,0,.448-0.224.462-0.7a3.073,3.073,0,0,0-.042-0.5,5.712,5.712,0,0,1-1.471.154h-1.233l2.634-5.042a1.435,1.435,0,0,0,.14-0.561,0.478,0.478,0,0,0-.126-0.35h-3.558Zm9-4.412c-1.135,0-1.149.014-1.149,0.308v13.91c1.107,0,1.149,0,1.149-.281V328.842Zm8.4,11.416H302.2a0.21,0.21,0,0,0,.238-0.224v-9.581c-1.12,0-1.148,0-1.148.238v3.292c0,0.658.042,3.319,0.14,4.16v0.042c-0.336-1.051-1.051-3.222-1.331-3.95l-1.569-3.782h-0.868a0.2,0.2,0,0,0-.238.238v9.567c1.134,0,1.134,0,1.134-.224v-3.4c0-.6-0.056-3.278-0.14-4.188,0.35,1.092,1.079,3.334,1.331,3.964Zm3.372-.6a0.707,0.707,0,0,0,.5.686,5.276,5.276,0,0,0,.8-0.042l1.611-7.046c-1.149,0-1.163,0-1.205.252l-0.378,1.975c-0.28,1.471-.518,3.558-0.518,3.558h-0.028s-0.253-2.087-.547-3.544l-0.448-2.241c-1.247,0-1.289,0-1.219.35Zm4.942-6.4c-0.924,0-1.163,0-1.163.519v6.485c1.149,0,1.163,0,1.163-.224v-6.78Zm-1.149-2.227c0,0.658.211,0.883,0.575,0.883,0.434,0,.644-0.337.644-0.911s-0.126-.812-0.56-0.812A0.7,0.7,0,0,0,308.515,331.027Zm5.392,8.138a1.448,1.448,0,0,1-.827.211c-0.658,0-1.05-.393-1.05-2.494,0-2.3.616-2.773,1.233-2.773a0.93,0.93,0,0,1,.644.182v4.874Zm0-5.771a1.586,1.586,0,0,0-1-.28c-1.2,0-2.157,1.121-2.157,3.894,0,3.04,1.065,3.39,2.283,3.39a4.593,4.593,0,0,0,2-.42V329.963c-0.924,0-1.134,0-1.134.518v2.913Zm3.611-.14c-0.925,0-1.163,0-1.163.519v6.485c1.149,0,1.163,0,1.163-.224v-6.78Zm-1.149-2.227c0,0.658.21,0.883,0.574,0.883,0.435,0,.645-0.337.645-0.911s-0.126-.812-0.561-0.812A0.7,0.7,0,0,0,316.369,331.027Zm2.212,2.858a1.343,1.343,0,0,0,.154.644,5.453,5.453,0,0,1,1.849-.308,0.716,0.716,0,0,1,.868.826v1.107a2.543,2.543,0,0,0-1.022-.182c-0.939,0-1.863.35-1.863,2.3,0,1.919.98,2.143,2,2.129a3.845,3.845,0,0,0,1.947-.476c0.07-1.065.084-2.746,0.084-4.356v-0.743a1.462,1.462,0,0,0-1.737-1.709,4.934,4.934,0,0,0-2.129.378A0.481,0.481,0,0,0,318.581,333.885Zm2.871,3.067c0,0.757,0,1.793-.042,2.255a1.162,1.162,0,0,1-.742.239c-0.546,0-.911-0.182-0.911-1.205,0-1.219.477-1.415,1.037-1.415A1.773,1.773,0,0,1,321.452,336.952Zm7.238-6.625c-1.849,0-3,.868-3,5.253,0,3.936.756,4.8,2.633,4.8a2.856,2.856,0,0,0,1.9-.616l0.014-5.267H328.41a0.224,0.224,0,0,0-.266.238v0.728h1.022v3.474a0.948,0.948,0,0,1-.812.337c-0.91,0-1.443-.449-1.443-3.769,0-3.137.589-4.1,2.017-4.1a1.794,1.794,0,0,1,1.107.336,1.908,1.908,0,0,0,.154-0.714C330.189,330.663,329.629,330.327,328.69,330.327Zm4.928,2.787c-1.233,0-2.479.5-2.479,4.006,0,2.732.938,3.278,2.241,3.278,1.05,0,1.933-.336,1.933-0.77a2.841,2.841,0,0,0-.1-0.771,3.332,3.332,0,0,1-1.6.435c-0.855,0-1.247-.393-1.3-1.877a17.893,17.893,0,0,0,2.928-.225,9.2,9.2,0,0,0,.154-1.821C335.4,333.857,334.8,333.114,333.618,333.114Zm-0.126,1c0.6,0,.784.378,0.8,1.386a4.171,4.171,0,0,1-.07.841,7.676,7.676,0,0,1-1.891.154C332.413,334.6,332.917,334.109,333.492,334.109Zm3.807,6.149a0.209,0.209,0,0,0,.224-0.224v-4.595h1.891c0.21,0,.21-0.182.21-1.036h-2.1v-2.97h2.227c0.21,0,.21-0.056.21-0.98h-3.347a0.246,0.246,0,0,0-.238.238v9.567H337.3Zm2.771-3.5c0,3.152.757,3.642,2.2,3.642,1.5,0,2.3-1.078,2.3-3.684,0-2.843-.7-3.6-2.171-3.6S340.07,334.193,340.07,336.756Zm1.233,0.028c0-2.185.434-2.675,1.051-2.675,0.658,0,.98.392,0.98,2.619,0,2.185-.434,2.7-1.036,2.7C341.653,339.432,341.3,339.1,341.3,336.784Zm4.213,3.474c1.135,0,1.149,0,1.149-.224l0.014-5.5a1.458,1.458,0,0,1,.925-0.322,1.407,1.407,0,0,1,.672.168,1.92,1.92,0,0,0,.126-0.672c0-.379-0.266-0.589-0.981-0.589a3.4,3.4,0,0,0-1.9.631v6.513Zm6.89-6.513a1.011,1.011,0,0,0-1.162-.631c-1.163,0-2.522.434-2.522,3.8,0,2.956.757,3.488,2.087,3.488,0.925,0,1.569-.336,1.569-0.714a2.321,2.321,0,0,0-.112-0.617,2.148,2.148,0,0,1-1.106.323c-0.855,0-1.247-.5-1.247-2.48,0-2.493.728-2.787,1.387-2.787a2.142,2.142,0,0,1,.98.252A1.719,1.719,0,0,0,352.406,333.745Zm2.954-.631c-1.233,0-2.48.5-2.48,4.006,0,2.732.939,3.278,2.241,3.278,1.051,0,1.933-.336,1.933-0.77a2.841,2.841,0,0,0-.1-0.771,3.325,3.325,0,0,1-1.6.435c-0.855,0-1.247-.393-1.3-1.877a17.882,17.882,0,0,0,2.927-.225,9.119,9.119,0,0,0,.155-1.821C357.139,333.857,356.536,333.114,355.36,333.114Zm-0.126,1c0.6,0,.784.378,0.8,1.386a4.171,4.171,0,0,1-.07.841,7.676,7.676,0,0,1-1.891.154C354.155,334.6,354.659,334.109,355.234,334.109Zm7.84-3.782c-1.849,0-3,.868-3,5.253,0,3.936.756,4.8,2.633,4.8a2.861,2.861,0,0,0,1.906-.616l0.014-5.267h-1.835a0.224,0.224,0,0,0-.267.238v0.728h1.023v3.474a0.948,0.948,0,0,1-.812.337c-0.911,0-1.443-.449-1.443-3.769,0-3.137.588-4.1,2.017-4.1a1.793,1.793,0,0,1,1.106.336,1.908,1.908,0,0,0,.154-0.714C364.572,330.663,364.012,330.327,363.074,330.327Zm6.888,1.19a0.2,0.2,0,0,0,.239-0.224v-0.84h-4.763a0.2,0.2,0,0,0-.238.238v0.826h1.905v8.741c1.12,0,1.134,0,1.134-.224v-8.517h1.723Zm5.909-1.064c-1.191,0-1.177,0-1.233.182l-0.532,1.4c-0.309.812-.561,1.639-0.7,2.1-0.14-.477-0.392-1.3-0.686-2.1l-0.56-1.583c-1.345,0-1.415,0-1.345.2l1.751,4.538-2.129,5.071h0.98a0.253,0.253,0,0,0,.266-0.14l0.757-1.751c0.322-.756.6-1.555,0.77-2.045,0.168,0.5.448,1.3,0.743,2.045l0.756,1.891h1.247c0.14,0,.182-0.07.112-0.2l-2-4.959Zm4.085,2.325h1.191v7.48h1.541v-9.805h-1.037a1.526,1.526,0,0,1-1.695,1.232v1.093Zm6.007-.07a0.813,0.813,0,1,1,1.6,0V338a0.813,0.813,0,1,1-1.6,0v-5.295Zm-1.541,5.2a2.342,2.342,0,1,0,4.678,0v-5.1a2.342,2.342,0,1,0-4.678,0v5.1Zm5.572-7.452v1.4h3.067l-2.255,8.4h1.541l2.269-8.461v-1.344h-4.622Zm7.056,2.255a0.813,0.813,0,1,1,1.6,0V338a0.813,0.813,0,1,1-1.6,0v-5.295Zm-1.54,5.2a2.342,2.342,0,1,0,4.678,0v-5.1a2.342,2.342,0,1,0-4.678,0v5.1Zm10.151-9.063c-1.135,0-1.149.014-1.149,0.308v13.91c1.107,0,1.149,0,1.149-.281V328.842Zm3.974,1.947s1.177,6.373,1.667,8.7a0.853,0.853,0,0,0,.574.868,7.318,7.318,0,0,0,1.037-.056l0.77-3.88c0.112-.742.3-2.227,0.407-3.18,0.112,0.953.28,2.438,0.434,3.194l0.714,3.138a0.769,0.769,0,0,0,.617.8,6.918,6.918,0,0,0,.952-0.07l1.835-9.847h-0.966c-0.211,0-.253.112-0.3,0.336l-0.9,5.085c-0.168,1.064-.28,2.255-0.35,3.137h-0.084c-0.1-.9-0.182-1.877-0.421-3.137l-0.98-4.945h-0.812c-0.225,0-.253.1-0.3,0.336l-0.854,4.609a22.092,22.092,0,0,0-.364,3.151h-0.084c-0.1-.9-0.2-1.9-0.421-3.151l-1.008-5.421h-0.939C409.607,330.453,409.593,330.565,409.635,330.789Zm10.879,2.465c-0.924,0-1.162,0-1.162.519v6.485c1.148,0,1.162,0,1.162-.224v-6.78Zm-1.148-2.227c0,0.658.21,0.883,0.574,0.883,0.434,0,.644-0.337.644-0.911s-0.126-.812-0.56-0.812A0.7,0.7,0,0,0,419.366,331.027Zm2.421,9.231c1.107,0,1.135,0,1.135-.224v-5.673a2.4,2.4,0,0,1,1.037-.252c0.7,0,.84.336,0.84,1.218v4.931c1.149,0,1.177,0,1.177-.224v-5.043c0-1.359-.5-1.877-1.975-1.877a6.279,6.279,0,0,0-2.214.476v6.668Zm8.318-1.093a1.448,1.448,0,0,1-.827.211c-0.658,0-1.05-.393-1.05-2.494,0-2.3.616-2.773,1.232-2.773a0.931,0.931,0,0,1,.645.182v4.874Zm0-5.771a1.588,1.588,0,0,0-1-.28c-1.2,0-2.157,1.121-2.157,3.894,0,3.04,1.065,3.39,2.283,3.39a4.593,4.593,0,0,0,2-.42V329.963c-0.924,0-1.134,0-1.134.518v2.913Zm2.14,3.362c0,3.152.756,3.642,2.2,3.642,1.5,0,2.3-1.078,2.3-3.684,0-2.843-.7-3.6-2.171-3.6S432.245,334.193,432.245,336.756Zm1.232,0.028c0-2.185.435-2.675,1.051-2.675,0.658,0,.981.392,0.981,2.619,0,2.185-.435,2.7-1.037,2.7C433.828,339.432,433.477,339.1,433.477,336.784Zm3.654-3.292s0.966,4.455,1.359,6.164a0.714,0.714,0,0,0,.49.686c0.364,0,.952-0.042.952-0.042l0.322-1.625c0.225-1.148.407-2.605,0.5-3.474,0.084,0.855.266,2.312,0.5,3.474l0.182,0.939a0.769,0.769,0,0,0,.6.728,4.937,4.937,0,0,0,.729-0.042c0.056,0,1.513-7.046,1.513-7.046-1.051,0-1.093,0-1.121.252l-0.364,2.032c-0.2,1.106-.378,2.577-0.434,3.4H442.3s-0.2-1.5-.435-2.549l-0.546-2.942h-0.742c-0.3,0-.351.042-0.379,0.239l-0.434,2.689c-0.168.868-.322,2.073-0.392,2.563h-0.084s-0.2-1.849-.49-3.4l-0.421-2.284C437.2,333.254,437.1,333.254,437.131,333.492Zm9.927-.378c-1.569,0-2.283.673-2.283,1.653a1.854,1.854,0,0,0,.8,1.485l1.359,1.163a1.4,1.4,0,0,1,.56,1.092,0.932,0.932,0,0,1-1.134.869,2.659,2.659,0,0,1-1.4-.351,1.277,1.277,0,0,0-.2.659c0,0.49.714,0.714,1.709,0.714,1.429,0,2.311-.7,2.311-1.947a2.214,2.214,0,0,0-.826-1.751l-1.3-1.05a1.088,1.088,0,0,1-.56-0.869c0-.434.448-0.672,1.106-0.672a2.52,2.52,0,0,1,1.373.364,0.918,0.918,0,0,0,.252-0.574C448.823,333.618,448.5,333.114,447.058,333.114Zm5.823-.336h1.191v7.48h1.541v-9.805h-1.037a1.526,1.526,0,0,1-1.7,1.232v1.093Zm6.006-.07a0.813,0.813,0,1,1,1.6,0V338a0.813,0.813,0,1,1-1.6,0v-5.295Zm-1.54,5.2a2.342,2.342,0,1,0,4.678,0v-5.1a2.342,2.342,0,1,0-4.678,0v5.1Zm12.714-4.651c-1.176,0-1.176,0-1.274.2l-0.421.757c-0.294.546-.63,1.274-0.77,1.6-0.14-.337-0.476-1.065-0.743-1.6l-0.518-.953c-1.274,0-1.289,0-1.19.182l1.694,3.166-1.975,3.656c1.051,0,1.205,0,1.3-.224l0.392-.686c0.322-.617.687-1.429,0.883-1.877,0.2,0.448.588,1.288,0.91,1.877l0.519,0.91c1.372,0,1.386.014,1.26-.266l-1.863-3.46Zm0.8,4.651a2.343,2.343,0,1,0,4.679,0v-1.793c0-1.443-.574-2.241-1.709-2.241a1.467,1.467,0,0,0-1.429.868v-1.793c0-.938.308-1.205,0.855-1.205a0.784,0.784,0,0,1,.8.967v0.35h1.457v-0.252a2.146,2.146,0,0,0-2.3-2.465c-1.6,0-2.354.9-2.354,2.549v5.015Zm2.34-2.634a0.784,0.784,0,0,1,.8.967V338a0.811,0.811,0,1,1-1.6,0v-1.765A0.784,0.784,0,0,1,473.2,335.271Zm2.938,3.208h2.942v1.779h1.541v-1.779h0.728v-1.4h-0.728v-6.625h-1.681l-2.8,6.625v1.4Zm1.415-1.4,1.527-3.628v3.628h-1.527Z"/>
  <path id="Shape_2_copy_4" data-name="Shape 2 copy 4" class="cls-4" d="M55.005,73.947h1v182.06h-1V73.947Z"/>
  <path id="_0" data-name="0" class="cls-4" d="M55.032,270.287c0-1.2.528-1.656,1.368-1.656s1.368,0.456,1.368,1.656v9.073c0,1.2-.528,1.656-1.368,1.656s-1.368-.456-1.368-1.656v-9.073Zm-2.64,8.905c0,2.688,1.416,4.224,4.008,4.224s4.008-1.536,4.008-4.224v-8.737c0-2.688-1.416-4.224-4.008-4.224s-4.008,1.536-4.008,4.224v8.737Z"/>
  <path id="Shape_2_copy_5" data-name="Shape 2 copy 5" class="cls-4" d="M145.005,73.947h1v182.06h-1V73.947Z"/>
  <path id="_5" data-name="5" class="cls-4" d="M141.487,277.8v1.392c0,2.688,1.345,4.224,3.937,4.224s3.936-1.536,3.936-4.224v-3.745c0-2.472-.984-3.84-2.928-3.84a2.519,2.519,0,0,0-2.3,1.224l0.216-4.008h4.584v-2.4h-6.961l-0.48,9.744h2.5v-0.5c0-1.2.528-1.656,1.368-1.656s1.368,0.456,1.368,1.656v3.7c0,1.2-.528,1.632-1.368,1.632s-1.368-.432-1.368-1.632V277.8h-2.5Z"/>
  <path id="Shape_2_copy_6" data-name="Shape 2 copy 6" class="cls-4" d="M235.005,73.947h1v182.06h-1V73.947Z"/>
  <path id="_10" data-name="10" class="cls-4" d="M228.008,269.887h2.04V282.7h2.64V265.9h-1.776a2.615,2.615,0,0,1-2.9,2.112v1.873Zm10.3-.12c0-1.2.528-1.657,1.368-1.657s1.368,0.457,1.368,1.657v9.072c0,1.2-.528,1.657-1.368,1.657s-1.368-.456-1.368-1.657v-9.072Zm-2.64,8.9c0,2.689,1.416,4.225,4.008,4.225s4.008-1.536,4.008-4.225v-8.736c0-2.689-1.416-4.225-4.008-4.225s-4.008,1.536-4.008,4.225v8.736Z"/>
  <path id="Shape_2_copy_11" data-name="Shape 2 copy 11" class="cls-4" d="M325.005,73.947h1v182.06h-1V73.947Z"/>
  <path id="_15" data-name="15" class="cls-4" d="M318.008,269.887h2.04V282.7h2.64V265.9h-1.776a2.615,2.615,0,0,1-2.9,2.112v1.873Zm7.752,7.392v1.392c0,2.689,1.344,4.225,3.936,4.225s3.936-1.536,3.936-4.225v-3.744c0-2.472-.984-3.84-2.928-3.84a2.519,2.519,0,0,0-2.3,1.224l0.216-4.008H333.2v-2.4h-6.96l-0.48,9.745h2.5v-0.5c0-1.2.528-1.656,1.368-1.656s1.368,0.456,1.368,1.656v3.7c0,1.2-.528,1.633-1.368,1.633s-1.368-.432-1.368-1.633v-1.56h-2.5Z"/>
  <path id="Shape_2_copy_9" data-name="Shape 2 copy 9" class="cls-4" d="M415.005,73.947h1v182.06h-1V73.947Z"/>
  <path id="_20" data-name="20" class="cls-4" d="M411.608,270.031c0,4.848-5.232,5.664-5.232,10.609V282.7h7.632v-2.4h-4.992c-0.5-2.953,5.232-4.849,5.232-10.369,0-2.689-1.344-4.225-3.936-4.225s-3.936,1.536-3.936,4.225v1.632h2.5v-1.8c0-1.2.528-1.657,1.368-1.657S411.608,268.519,411.608,270.031Zm6.7-.264c0-1.2.528-1.657,1.368-1.657s1.368,0.457,1.368,1.657v9.072c0,1.2-.528,1.657-1.368,1.657s-1.368-.456-1.368-1.657v-9.072Zm-2.64,8.9c0,2.689,1.416,4.225,4.008,4.225s4.008-1.536,4.008-4.225v-8.736c0-2.689-1.416-4.225-4.008-4.225s-4.008,1.536-4.008,4.225v8.736Z"/>
  <path id="Shape_2_copy_10" data-name="Shape 2 copy 10" class="cls-4" d="M504.005,73.947h1v182.06h-1V73.947Z"/>
  <path id="_25" data-name="25" class="cls-4" d="M501.088,270.551c0,4.848-5.233,5.664-5.233,10.609v2.064h7.633v-2.4H498.5c-0.5-2.952,5.232-4.849,5.232-10.369,0-2.688-1.344-4.224-3.936-4.224s-3.937,1.536-3.937,4.224v1.632h2.5v-1.8c0-1.2.528-1.656,1.368-1.656S501.088,269.039,501.088,270.551Zm4.151,7.249v1.392c0,2.688,1.344,4.224,3.937,4.224s3.936-1.536,3.936-4.224v-3.745c0-2.472-.984-3.84-2.928-3.84a2.519,2.519,0,0,0-2.3,1.224l0.216-4.008h4.584v-2.4h-6.961l-0.48,9.744h2.5v-0.5c0-1.2.528-1.656,1.368-1.656s1.368,0.456,1.368,1.656v3.7c0,1.2-.528,1.632-1.368,1.632s-1.368-.432-1.368-1.632V277.8h-2.5Z"/>
  <g>
    <path id="Shape_1_copy_3" data-name="Shape 1 copy 3" class="cls-5" d="M119,189.975V236h-63V189.975h63Z"/>
    <path id="_3.5" data-name="3.5" class="cls-6" d="M100.926,209.827a1.092,1.092,0,0,1-1.188,1.332H98.963v1.8H99.63c0.9,0,1.3.433,1.3,1.6v0.99c0,1.117-.4,1.423-1.026,1.423a1.007,1.007,0,0,1-1.026-1.243v-1.17H97v1.044c0,2.017,1.008,3.169,2.953,3.169s2.952-1.152,2.952-3.169v-0.99a2.572,2.572,0,0,0-1.386-2.647c0.954-.4,1.386-1.242,1.386-2.593v-0.324c0-2.016-1.008-3.169-2.952-3.169S97,207.036,97,209.052v0.685h1.873v-0.811a1.006,1.006,0,0,1,1.026-1.242c0.63,0,1.026.306,1.026,1.44v0.7Zm3.311,6.9v1.908h1.908v-1.908h-1.908Zm3.257-2.161v1.044c0,2.017,1.009,3.169,2.953,3.169s2.953-1.152,2.953-3.169V212.8c0-1.854-.738-2.88-2.2-2.88a1.889,1.889,0,0,0-1.729.918l0.162-3.007h3.439v-1.8h-5.221l-0.361,7.311h1.873v-0.379a1.045,1.045,0,1,1,2.053,0v2.773a1.043,1.043,0,1,1-2.053,0v-1.17h-1.873Z"/>
    <path id="WASAPI" class="cls-7" d="M14.672,218.475H17.3l1.4-12.6H16.976L15.95,215.882l-0.99-10.011H13.051L12.1,215.81l-1.062-9.939H9.108l1.4,12.6h2.719l0.72-6.716Zm9.144-12.6h-2.9l-2.017,12.6h1.819l0.342-2.287h2.431l0.342,2.287h2ZM22.267,208.1l0.954,6.374H21.313ZM26.5,208.9c0,3.6,3.871,4.087,3.871,6.68a1.042,1.042,0,1,1-2.053,0v-0.9H26.442v0.775c0,2.016,1.008,3.169,2.953,3.169s2.953-1.153,2.953-3.169c0-3.6-3.871-4.088-3.871-6.68,0-.9.36-1.243,0.99-1.243s0.99,0.342.99,1.243v0.522H32.33v-0.4c0-2.017-.99-3.169-2.917-3.169S26.5,206.879,26.5,208.9Zm11.377-3.025h-2.9l-2.017,12.6h1.819l0.342-2.287h2.431l0.342,2.287h2ZM36.325,208.1l0.954,6.374H35.37Zm7.4-2.232H40.806v12.6h1.981v-4.736h0.936c1.981,0,2.953-1.1,2.953-3.115v-1.638C46.676,206.969,45.7,205.871,43.723,205.871Zm0,1.8c0.63,0,.972.288,0.972,1.189v1.89c0,0.9-.342,1.189-0.972,1.189H42.786v-4.268h0.936Zm3.869,10.8h1.981v-12.6H47.592v12.6Z"/>
    <path id="Shape_1_copy" data-name="Shape 1 copy" class="cls-8" d="M361,141.975V188H55.986V141.975H361Z"/>
    <path id="_17" data-name="17" class="cls-6" d="M344.681,161.016h1.53v9.615h1.981v-12.6h-1.333a1.961,1.961,0,0,1-2.178,1.585v1.4Zm5.777-2.989v1.8H354.4l-2.9,10.8h1.98l2.917-10.875v-1.729h-5.942Z"/>
    <path id="cubeb" class="cls-7" d="M19.531,165.775v1.8a1.042,1.042,0,1,1-2.053,0V160.77a1.045,1.045,0,1,1,2.053,0v1.35H21.4V160.9c0-2.017-1.008-3.169-2.953-3.169S15.5,158.879,15.5,160.9v6.554c0,2.016,1.008,3.169,2.953,3.169s2.953-1.153,2.953-3.169v-1.675H19.531Zm2.987-7.9v9.6c0,2.016,1.008,3.169,2.953,3.169s2.953-1.153,2.953-3.169v-9.6H26.551v9.723a1.042,1.042,0,1,1-2.053,0v-9.723H22.518Zm10.243,0H29.772v12.6h3.115a2.679,2.679,0,0,0,3.007-2.989v-1.027c0-1.332-.414-2.286-1.477-2.7A2.477,2.477,0,0,0,35.7,161.22v-0.45C35.7,158.825,34.813,157.871,32.761,157.871ZM32.635,164.8c0.9,0,1.278.36,1.278,1.53v1.1c0,0.936-.36,1.242-1.026,1.242H31.753V164.8h0.882Zm0.072-5.132c0.7,0,1.008.4,1.008,1.3v0.7A1.092,1.092,0,0,1,32.527,163H31.753v-3.331h0.954Zm6.354,0h3.421v-1.8h-5.4v12.6h5.4v-1.8H39.06v-3.691h2.719v-1.8H39.06v-3.511Zm7.632-1.8H43.7v12.6h3.115a2.679,2.679,0,0,0,3.007-2.989v-1.027c0-1.332-.414-2.286-1.476-2.7a2.477,2.477,0,0,0,1.278-2.539v-0.45C49.628,158.825,48.745,157.871,46.693,157.871ZM46.567,164.8c0.9,0,1.278.36,1.278,1.53v1.1c0,0.936-.36,1.242-1.026,1.242H45.684V164.8h0.882Zm0.072-5.132c0.7,0,1.008.4,1.008,1.3v0.7A1.092,1.092,0,0,1,46.459,163H45.684v-3.331h0.954Z"/>
    <path class="cls-2" d="M431.991,93.981v45.992H55.971V93.981h376.02Z"/>
    <path id="_21" data-name="21" class="cls-6" d="M417.172,113.334c0,3.637-3.925,4.249-3.925,7.958v1.548h5.726v-1.8h-3.745c-0.378-2.215,3.925-3.637,3.925-7.778,0-2.017-1.008-3.169-2.953-3.169s-2.953,1.152-2.953,3.169v1.224h1.873v-1.35a1.007,1.007,0,0,1,1.026-1.243C416.776,111.893,417.172,112.2,417.172,113.334Zm4.427-.108h1.531v9.614h1.981v-12.6h-1.333a1.962,1.962,0,0,1-2.179,1.584v1.405Z"/>
    <path id="xaudio2" class="cls-7" d="M8.534,110.871L7,115.516l-1.494-4.645H3.456l2.071,6.122-2.215,6.482H5.167l1.638-4.988,1.62,4.988h2.089L8.3,116.993l2.071-6.122H8.534Zm7.362,0H13l-2.017,12.6H12.8l0.342-2.287h2.431l0.342,2.287h2ZM14.347,113.1l0.954,6.374H13.393Zm4.391-2.232v9.6c0,2.016,1.008,3.169,2.953,3.169s2.953-1.153,2.953-3.169v-9.6H22.771v9.723a1.042,1.042,0,1,1-2.053,0v-9.723H18.738Zm7.254,12.6h3.133c1.981,0,2.953-1.1,2.953-3.115v-6.374c0-2.017-.972-3.115-2.953-3.115H25.992v12.6Zm3.1-10.8A0.982,0.982,0,0,1,30.1,113.9v6.554a0.981,0.981,0,0,1-1.008,1.224H27.973v-9h1.116Zm4.247,10.8h1.981v-12.6H33.336v12.6Zm5.238-9.7a1.045,1.045,0,1,1,2.053,0v6.806a1.045,1.045,0,1,1-2.053,0V113.77Zm-1.981,6.68c0,2.016,1.062,3.169,3.007,3.169s3.007-1.153,3.007-3.169V113.9c0-2.017-1.062-3.169-3.007-3.169s-3.007,1.152-3.007,3.169v6.554Zm11.215-6.482c0,3.637-3.925,4.249-3.925,7.958v1.549h5.726v-1.8H45.864c-0.378-2.215,3.925-3.637,3.925-7.778,0-2.017-1.008-3.169-2.953-3.169s-2.953,1.152-2.953,3.169v1.224h1.873v-1.35a1.007,1.007,0,0,1,1.026-1.243C47.413,112.527,47.809,112.833,47.809,113.968Z"/>
  </g>
</svg>
